<?xml version="1.0" standalone="no"?>
<!DOCTYPE svg PUBLIC "-//W3C//DTD SVG 20010904//EN"
 "http://www.w3.org/TR/2001/REC-SVG-20010904/DTD/svg10.dtd">
<svg version="1.0" xmlns="http://www.w3.org/2000/svg"
 width="541.000000pt" height="541.000000pt" viewBox="0 0 541.000000 541.000000"
 preserveAspectRatio="xMidYMid meet">
<metadata>
Created by potrace 1.14, written by Peter Selinger 2001-2017
</metadata>
<g transform="translate(0.000000,541.000000) scale(0.100000,-0.100000)"
fill="#000000" stroke="none">
<path d="M2000 5377 c-87 -26 -166 -69 -266 -143 -79 -60 -204 -186 -252 -257
-49 -70 -92 -168 -92 -207 0 -27 -16 -60 -71 -140 -38 -58 -77 -114 -85 -125
-8 -11 -61 -87 -119 -170 -57 -82 -138 -198 -180 -258 -76 -107 -108 -166
-120 -222 -4 -16 -9 -142 -11 -280 -5 -246 -5 -251 -32 -306 -16 -33 -40 -65
-59 -77 -41 -27 -64 -72 -65 -124 0 -48 24 -86 72 -110 46 -24 50 -34 29 -76
-11 -20 -19 -46 -19 -58 0 -34 21 -87 45 -114 32 -36 28 -92 -8 -125 -39 -37
-60 -83 -61 -138 0 -57 17 -74 51 -52 12 8 26 15 30 15 7 0 9 -128 4 -212 -1
-14 -12 -12 -83 13 -46 17 -107 41 -137 54 -85 40 -94 19 -25 -61 25 -30 44
-54 42 -55 -8 -2 -50 -6 -123 -13 -44 -4 -84 -11 -88 -15 -14 -14 27 -51 103
-90 71 -38 73 -40 50 -50 -187 -74 -205 -91 -118 -112 29 -7 96 -12 149 -12
l96 1 17 -84 c15 -79 15 -86 0 -110 -33 -49 -19 -122 32 -175 17 -18 22 -29
14 -34 -6 -4 -29 -29 -51 -57 -46 -59 -41 -79 19 -72 20 3 51 7 68 9 31 4 31
3 31 -40 0 -43 0 -43 -54 -64 -143 -55 -261 -170 -318 -311 -27 -66 -29 -200
-5 -279 l18 -62 -21 -9 c-95 -36 -133 -52 -139 -58 -11 -11 -14 -210 -3 -221
6 -5 137 -72 291 -150 l282 -140 53 15 c129 35 588 134 738 159 14 2 67 11
116 20 110 19 121 20 215 35 41 7 84 14 95 16 11 3 36 7 55 10 19 2 46 7 60 9
14 3 41 7 60 10 19 3 46 7 60 10 14 2 45 7 70 10 25 3 56 8 70 10 43 8 80 13
270 40 102 14 199 27 215 30 17 2 86 11 155 20 69 9 136 18 150 20 14 2 54 7
90 10 36 4 72 8 80 10 8 1 47 6 85 10 39 4 77 8 85 10 8 1 47 6 85 9 39 4 81
9 95 11 14 2 55 6 91 9 37 3 82 8 100 10 19 3 63 7 99 10 84 7 182 15 245 20
28 3 104 8 170 11 66 4 149 8 184 10 57 3 67 7 100 38 20 20 61 59 91 87 262
248 340 326 340 339 0 19 -50 173 -59 182 -3 4 -42 10 -86 14 -44 4 -82 8 -84
10 -2 2 -4 39 -6 82 -4 130 -51 230 -151 323 -94 88 -252 143 -400 139 -44 -1
-100 5 -142 16 l-70 18 14 40 c8 22 16 49 19 61 2 12 11 48 19 81 23 91 21
165 -7 206 -32 49 -117 86 -204 89 -21 0 -15 17 18 50 28 27 31 36 25 69 -4
24 -1 44 8 56 13 17 14 17 37 -9 36 -41 102 -77 151 -81 102 -8 344 81 443
163 28 23 65 53 83 68 75 61 101 171 71 299 -18 74 -40 107 -86 131 -35 18
-50 20 -93 13 -71 -11 -185 -82 -216 -134 -19 -31 -25 -118 -12 -166 7 -24 3
-27 -62 -56 -65 -29 -70 -30 -84 -14 -9 10 -16 22 -16 27 0 6 -11 20 -25 32
-24 21 -34 52 -16 52 11 0 91 79 91 90 0 4 17 10 38 14 48 7 87 37 108 83 19
39 23 128 7 144 -8 8 -2 29 23 74 52 94 48 191 -13 306 -65 126 -176 200 -301
202 l-70 1 24 38 c29 46 34 86 6 52 -9 -12 -25 -37 -35 -55 -21 -37 -29 -31
-47 34 -6 20 -15 37 -20 37 -14 0 -12 -25 4 -65 l14 -34 -41 15 c-27 10 -70
14 -119 12 l-76 -2 -42 42 c-23 23 -48 42 -55 42 -7 0 -25 19 -40 42 -25 38
-27 45 -16 72 39 95 37 162 -3 200 -19 17 -23 30 -21 68 5 93 -53 169 -170
223 -122 57 -295 80 -400 54 -32 -8 -56 -24 -87 -57 -24 -26 -47 -47 -53 -48
-5 0 -18 -2 -27 -2 -27 -3 -86 -60 -97 -95 -10 -31 -19 -70 -20 -93 -2 -20
-74 -50 -125 -53 -69 -3 -196 -46 -256 -86 -29 -19 -58 -35 -66 -35 -34 0
-176 -33 -260 -61 -242 -79 -447 -232 -574 -427 l-52 -81 -56 25 c-30 13 -80
31 -110 38 -63 17 -190 15 -240 -4 -18 -7 -36 -9 -40 -5 -4 4 -7 86 -7 183 0
166 2 180 24 222 20 39 303 466 421 637 l43 62 43 -6 c177 -21 508 198 683
454 97 143 115 246 53 309 -61 61 -158 76 -272 41z m-930 -2838 c-12 -22 -22
-19 -26 6 -1 9 6 15 17 15 17 0 18 -3 9 -21z m108 -1285 c-3 -2 -19 -1 -37 2
l-33 7 29 23 28 22 9 -24 c4 -14 6 -27 4 -30z"/>
<path d="M3428 5244 c-2 -1 -18 -4 -37 -6 -34 -4 -57 -28 -28 -28 20 0 26 -18
16 -55 -4 -16 -10 -48 -13 -70 -3 -22 -14 -87 -25 -145 -12 -58 -21 -108 -21
-111 0 -4 15 -3 32 0 30 6 34 11 40 51 13 91 18 103 50 131 61 53 67 38 39
-106 -9 -47 5 -85 30 -85 23 0 87 55 77 66 -4 4 -14 1 -23 -6 -26 -22 -29 -3
-14 79 17 89 11 118 -26 127 -20 5 -35 -2 -72 -32 -26 -21 -44 -34 -40 -28 4
7 9 29 12 50 6 38 23 123 31 155 4 13 -19 23 -28 13z"/>
<path d="M4053 5202 c-23 -7 -72 -47 -74 -59 0 -5 -2 -17 -5 -28 -4 -22 14
-75 26 -75 17 0 19 -31 2 -37 -39 -14 -72 -56 -72 -93 0 -52 36 -84 97 -86 82
-3 141 38 150 103 4 34 1 45 -26 76 -29 32 -30 36 -13 41 10 4 28 16 40 29 70
74 -14 161 -125 129z m79 -39 c30 -27 21 -66 -23 -100 -13 -11 -20 -9 -42 10
-36 30 -42 72 -14 92 28 20 56 19 79 -2z m-49 -193 c37 -29 43 -67 16 -96 -29
-31 -74 -29 -100 5 -23 29 -18 57 17 89 31 27 35 27 67 2z"/>
<path d="M3000 5160 c-13 -46 -13 -50 5 -50 8 0 15 6 15 13 0 22 39 37 101 38
33 1 62 0 64 -2 3 -5 -122 -165 -197 -251 -27 -32 -46 -62 -43 -68 4 -6 66
-10 155 -10 l148 0 6 28 c4 15 9 35 12 45 3 11 0 17 -9 17 -8 0 -17 -9 -20
-20 -7 -28 -50 -41 -125 -38 l-64 3 77 100 c89 116 123 159 148 188 35 41 25
44 -123 43 l-140 0 -10 -36z"/>
<path d="M4430 5191 c0 -5 10 -11 21 -14 20 -5 21 -10 16 -59 -4 -29 -9 -64
-12 -78 -3 -14 -8 -38 -11 -55 -3 -16 -7 -34 -8 -40 -2 -5 -6 -27 -11 -48 -5
-28 -13 -39 -31 -43 -45 -12 -24 -24 41 -24 37 0 65 4 65 10 0 6 -7 10 -15 10
-25 0 -24 26 7 202 l11 68 35 -58 c35 -58 43 -72 101 -174 25 -45 38 -58 56
-58 21 0 24 7 35 73 36 227 50 277 75 277 8 0 15 5 15 10 0 6 -26 10 -59 10
-33 0 -63 -4 -66 -10 -3 -5 1 -10 9 -10 15 0 40 -33 31 -42 -3 -2 -7 -26 -10
-54 -4 -27 -10 -67 -15 -88 -5 -22 -7 -43 -4 -47 2 -4 1 -10 -4 -13 -8 -5
-152 233 -152 252 0 8 -21 12 -60 12 -33 0 -60 -4 -60 -9z"/>
<path d="M5130 5145 c-14 -7 -27 -24 -30 -37 -4 -14 -14 -24 -28 -26 -25 -4
-30 -32 -6 -32 13 0 15 -7 10 -32 -3 -18 -9 -63 -12 -99 -5 -53 -3 -68 11 -82
9 -9 22 -17 29 -17 18 0 85 53 86 68 0 16 -10 15 -31 -4 -38 -35 -46 6 -23
129 6 34 9 37 39 37 20 0 35 6 39 15 4 12 -3 15 -30 15 -32 0 -34 2 -28 28 3
15 7 33 10 40 4 15 -5 15 -36 -3z"/>
<path d="M3670 5083 c-22 -9 -64 -43 -54 -44 5 -1 19 0 31 1 21 1 21 1 8 -58
-24 -102 -25 -115 -10 -139 21 -32 45 -29 92 12 l41 35 6 -30 c3 -17 13 -33
21 -36 21 -9 85 37 85 60 0 18 -1 18 -20 1 -17 -15 -20 -15 -25 -3 -5 12 15
136 31 190 3 12 0 15 -13 13 -10 -2 -25 -4 -33 -4 -12 -1 -19 -21 -28 -73 -11
-62 -18 -77 -45 -100 -59 -51 -69 -33 -42 80 20 84 6 114 -45 95z"/>
<path d="M4883 5070 c-39 -26 -77 -100 -77 -151 0 -102 73 -127 157 -55 45 39
34 62 -13 26 -29 -23 -51 -25 -68 -8 -26 26 -13 47 50 78 68 34 78 44 78 76 0
48 -75 68 -127 34z m66 -24 c16 -20 4 -42 -35 -66 -45 -26 -48 -25 -39 8 15
61 49 88 74 58z"/>
<path d="M4273 4908 c-26 -12 -29 -34 -9 -61 14 -18 16 -18 40 -2 29 19 32 32
12 58 -15 19 -14 19 -43 5z"/>
</g>
</svg>
