<?xml version="1.0" standalone="no"?>
<!DOCTYPE svg PUBLIC "-//W3C//DTD SVG 20010904//EN"
 "http://www.w3.org/TR/2001/REC-SVG-20010904/DTD/svg10.dtd">
<svg version="1.0" xmlns="http://www.w3.org/2000/svg"
 width="256.000000pt" height="256.000000pt" viewBox="0 0 256.000000 256.000000"
 preserveAspectRatio="xMidYMid meet">
<metadata>
Created by potrace 1.14, written by Peter Selinger 2001-2017
</metadata>
<g transform="translate(0.000000,256.000000) scale(0.100000,-0.100000)"
fill="#000000" stroke="none">
<path d="M1297 2474 c-1 -1 -29 -5 -62 -8 -59 -6 -100 -13 -100 -16 0 -1 -11
-3 -24 -6 -96 -18 -276 -99 -369 -167 -64 -47 -172 -154 -218 -217 -140 -190
-202 -418 -180 -660 5 -52 8 -69 22 -130 3 -14 6 -30 8 -37 1 -7 5 -16 9 -19
4 -4 7 -14 7 -22 0 -19 67 -158 100 -207 23 -34 25 -45 17 -73 -7 -24 -6 -42
4 -70 13 -32 13 -42 0 -77 -8 -24 -14 -81 -15 -141 l-1 -102 -65 1 c-36 0 -77
-3 -92 -6 -16 -3 -28 -2 -28 2 0 10 -52 7 -69 -4 -7 -3 -18 -2 -25 4 -9 8 -18
7 -31 -3 -16 -12 -17 -16 -6 -30 7 -9 21 -16 30 -16 9 0 23 -5 31 -11 13 -9
12 -10 -2 -5 -24 7 -23 4 14 -30 17 -16 27 -23 23 -15 -8 15 5 10 33 -13 8 -5
23 -12 35 -13 11 -2 23 -6 26 -10 3 -3 -4 -3 -17 0 -16 4 -22 1 -22 -11 0 -8
3 -12 7 -9 3 4 14 0 24 -9 11 -10 19 -12 24 -5 3 6 12 11 18 11 7 0 6 -4 -3
-10 -13 -9 -13 -10 0 -11 8 -1 19 -1 24 0 5 1 4 -4 -2 -12 -9 -11 -6 -13 21
-9 28 4 30 3 19 -10 -10 -13 -9 -15 13 -10 15 2 25 0 25 -7 0 -6 5 -11 11 -11
5 0 7 5 4 10 -3 6 -1 10 4 10 6 0 11 -3 11 -7 0 -8 50 -40 61 -39 3 1 13 -5
22 -13 15 -12 17 -11 17 5 1 18 1 18 11 1 6 -9 14 -15 20 -12 5 4 9 1 9 -4 0
-6 11 -11 24 -11 14 0 28 -5 31 -11 5 -7 14 -4 28 8 16 13 18 14 9 2 -10 -14
-9 -18 5 -24 30 -13 43 -14 50 -3 4 7 1 8 -7 3 -9 -5 -11 -4 -6 4 4 6 12 9 17
5 5 -3 7 -10 3 -15 -4 -7 7 -9 27 -7 21 2 40 -3 49 -12 8 -9 12 -11 8 -5 -4 6
1 11 12 11 10 0 16 -4 14 -8 -3 -4 7 -8 21 -8 15 0 35 -5 46 -11 16 -8 25 -7
39 6 18 17 19 16 15 -6 -4 -21 -3 -22 12 -6 15 15 17 15 30 -1 8 -9 12 -11 8
-4 -4 7 0 12 10 12 10 0 13 -5 9 -12 -6 -10 -4 -10 8 0 13 10 17 10 22 -3 6
-18 26 -11 26 8 0 7 -4 6 -11 -3 -8 -12 -10 -12 -7 -1 6 21 56 20 78 -2 19
-17 20 -17 20 0 0 15 2 16 10 3 9 -14 14 -7 11 13 -1 5 3 6 9 2 6 -3 8 -11 5
-16 -4 -5 -4 -9 -1 -9 2 0 13 -3 23 -6 15 -5 15 -4 3 5 -22 15 -5 24 20 11 12
-7 20 -8 16 -2 -3 5 1 12 8 15 11 4 13 0 11 -15 l-4 -21 20 21 c20 22 35 30
25 13 -3 -5 1 -11 9 -15 8 -3 17 0 21 6 5 7 2 8 -6 3 -8 -5 -11 -4 -7 3 4 5
17 8 29 4 16 -4 19 -2 13 8 -5 9 -4 11 4 6 6 -4 8 -13 4 -19 -4 -7 2 -5 12 3
10 8 16 10 12 3 -4 -6 -2 -15 4 -19 8 -5 9 -3 4 6 -6 10 -4 12 10 6 15 -5 16
-4 6 8 -9 11 -9 16 0 22 8 4 9 3 5 -4 -4 -7 -4 -12 1 -13 4 0 18 -2 31 -3 12
-2 22 2 22 7 0 5 7 4 15 -3 13 -11 14 -10 10 2 -4 9 0 15 10 15 10 0 14 -6 10
-16 -4 -13 -2 -12 9 2 15 19 31 23 20 4 -4 -6 2 -4 14 7 18 15 24 16 37 6 12
-10 16 -9 21 5 5 12 9 13 14 5 5 -9 10 -6 15 9 6 21 8 21 19 5 10 -13 15 -14
21 -4 6 9 4 11 -6 5 -8 -5 -10 -4 -6 0 11 13 38 15 31 3 -3 -5 3 -4 14 3 12 7
19 15 17 19 -2 3 8 6 21 7 13 1 35 3 49 4 14 1 25 5 25 10 0 5 5 9 11 9 5 0 7
-6 3 -12 -6 -10 -5 -10 8 -1 8 7 19 9 23 5 5 -4 5 -2 1 5 -3 6 -2 14 4 18 5 3
10 1 10 -5 0 -6 5 -8 10 -5 6 4 7 11 4 17 -4 6 2 6 15 -1 18 -10 20 -9 14 6
-6 16 -5 16 10 4 15 -12 17 -12 12 1 -4 9 1 18 10 22 9 3 13 2 10 -4 -3 -6 -1
-10 4 -10 6 0 11 5 11 11 0 6 7 8 16 5 13 -5 14 -3 6 7 -8 10 -6 13 11 15 47
5 61 9 65 20 2 7 9 9 15 5 9 -5 8 -2 0 8 -10 13 -8 15 14 15 14 -1 28 5 31 13
3 8 0 11 -7 7 -7 -5 -9 -1 -4 9 3 9 9 13 12 8 3 -5 16 -10 29 -10 20 -2 21 0
7 13 -20 21 -19 23 10 20 14 -2 31 4 37 12 10 13 10 14 0 8 -6 -4 -12 -2 -12
3 0 6 7 11 16 11 8 0 13 4 10 9 -3 5 2 12 12 16 15 6 14 8 -8 20 -14 7 -27 12
-31 10 -15 -10 -59 -13 -64 -5 -3 5 -12 7 -20 3 -8 -3 -22 -3 -29 0 -13 5 -13
10 0 36 9 17 13 35 9 41 -3 5 -2 10 4 10 5 0 8 35 6 88 -3 83 -6 107 -21 154
-4 13 3 37 19 67 14 25 27 62 30 81 3 19 16 60 29 90 28 63 40 92 43 103 2 4
3 8 5 10 1 1 3 9 5 17 9 47 28 107 37 117 12 14 13 61 5 211 -6 97 -5 102 14
102 11 0 17 5 14 10 -3 6 -15 10 -26 10 -12 0 -19 7 -19 20 0 26 0 24 -11 62
-6 18 -12 40 -14 48 -2 8 -8 28 -14 43 -15 39 -14 47 7 47 9 0 24 5 32 10 11
8 5 10 -22 8 -43 -2 -37 -8 -76 63 -39 73 -62 109 -87 135 -11 12 -41 43 -66
70 -76 81 -164 143 -279 198 -36 17 -69 32 -75 33 -5 2 -31 8 -57 15 -27 7
-48 16 -48 21 0 4 -4 6 -9 3 -4 -3 -22 -2 -38 3 -54 16 -313 36 -326 25z
m-687 -2220 c0 -8 -19 -13 -24 -6 -3 5 1 9 9 9 8 0 15 -2 15 -3z m1118 -79
c-3 -3 -9 2 -12 12 -6 14 -5 15 5 6 7 -7 10 -15 7 -18z m-703 -25 c3 -5 1 -10
-4 -10 -6 0 -11 5 -11 10 0 6 2 10 4 10 3 0 8 -4 11 -10z"/>
<path d="M290 391 c0 -5 7 -12 16 -15 14 -5 15 -4 4 9 -14 17 -20 19 -20 6z"/>
<path d="M1880 210 c-9 -6 -10 -10 -3 -10 6 0 15 5 18 10 8 12 4 12 -15 0z"/>
<path d="M1211 124 c0 -11 3 -14 6 -6 3 7 2 16 -1 19 -3 4 -6 -2 -5 -13z"/>
</g>
</svg>
